<svg width="24" height="24" viewBox="0 0 24 24" fill="none" xmlns="http://www.w3.org/2000/svg">
<path d="M20.25 5.25H3.75C3.33579 5.25 3 5.58579 3 6V18C3 18.4142 3.33579 18.75 3.75 18.75H20.25C20.6642 18.75 21 18.4142 21 18V6C21 5.58579 20.6642 5.25 20.25 5.25Z" stroke="currentColor" stroke-width="1.5" stroke-linecap="round" stroke-linejoin="round"/>
<path d="M7.5 10.5C8.32843 10.5 9 9.82843 9 9C9 8.17157 8.32843 7.5 7.5 7.5C6.67157 7.5 6 8.17157 6 9C6 9.82843 6.67157 10.5 7.5 10.5Z" stroke="currentColor" stroke-width="1.5" stroke-linecap="round" stroke-linejoin="round"/>
<path d="M7.5 16.5C8.32843 16.5 9 15.8284 9 15C9 14.1716 8.32843 13.5 7.5 13.5C6.67157 13.5 6 14.1716 6 15C6 15.8284 6.67157 16.5 7.5 16.5Z" stroke="currentColor" stroke-width="1.5" stroke-linecap="round" stroke-linejoin="round"/>
<path d="M16.5 10.5C17.3284 10.5 18 9.82843 18 9C18 8.17157 17.3284 7.5 16.5 7.5C15.6716 7.5 15 8.17157 15 9C15 9.82843 15.6716 10.5 16.5 10.5Z" stroke="currentColor" stroke-width="1.5" stroke-linecap="round" stroke-linejoin="round"/>
<path d="M16.5 16.5C17.3284 16.5 18 15.8284 18 15C18 14.1716 17.3284 13.5 16.5 13.5C15.6716 13.5 15 14.1716 15 15C15 15.8284 15.6716 16.5 16.5 16.5Z" stroke="currentColor" stroke-width="1.5" stroke-linecap="round" stroke-linejoin="round"/>
<path d="M4.5 12H19.5" stroke="currentColor" stroke-width="1.5" stroke-linecap="round" stroke-linejoin="round"/>
</svg> 